HIERARCHY
ROOT Hips
{
	OFFSET 0.000000 0.000000 0.000000
	CHANNELS 6 Xposition Yposition Zposition Xrotation Yrotation Zrotation
	JOINT Chest
	{
		OFFSET 0.000000 0.009282 11.569106
		CHANNELS 3 Xrotation Yrotation Zrotation
		JOINT Chest2
		{
			OFFSET 0.000000 -0.016863 9.269641
			CHANNELS 3 Xrotation Yrotation Zrotation
			JOINT Chest3
			{
				OFFSET 0.000000 0.000000 8.374491
				CHANNELS 3 Xrotation Yrotation Zrotation
				JOINT Chest4
				{
					OFFSET 0.000000 0.000000 8.374493
					CHANNELS 3 Xrotation Yrotation Zrotation
					JOINT Neck
					{
						OFFSET 0.000000 -0.000001 12.152554
						CHANNELS 3 Xrotation Yrotation Zrotation
						JOINT Head
						{
							OFFSET 0.000000 -0.040100 7.802319
							CHANNELS 3 Xrotation Yrotation Zrotation
							End Site
							{
								OFFSET 0.000000 -0.020946 14.853096
							}
						}
					}
					JOINT RightCollar
					{
						OFFSET -2.894404 0.000000 6.791374
						CHANNELS 3 Xrotation Yrotation Zrotation
						JOINT RightShoulder
						{
							OFFSET -13.574684 0.000000 0.000000
							CHANNELS 3 Xrotation Yrotation Zrotation
							JOINT RightElbow
							{
								OFFSET -23.923903 0.000000 0.000000
								CHANNELS 3 Xrotation Yrotation Zrotation
								JOINT RightWrist
								{
									OFFSET -19.846718 -0.012765 0.000000
									CHANNELS 3 Xrotation Yrotation Zrotation
									End Site
									{
										OFFSET -14.973145 0.000000 0.000000
									}
								}
							}
						}
					}
					JOINT LeftCollar
					{
						OFFSET 2.894404 0.000000 6.791374
						CHANNELS 3 Xrotation Yrotation Zrotation
						JOINT LeftShoulder
						{
							OFFSET 13.574684 0.000000 0.000000
							CHANNELS 3 Xrotation Yrotation Zrotation
							JOINT LeftElbow
							{
								OFFSET 23.923903 0.000000 0.000000
								CHANNELS 3 Xrotation Yrotation Zrotation
								JOINT LeftWrist
								{
									OFFSET 19.846718 -0.012765 0.000000
									CHANNELS 3 Xrotation Yrotation Zrotation
									End Site
									{
										OFFSET 14.973145 0.000000 0.000000
									}
								}
							}
						}
					}
				}
			}
		}
	}
	JOINT RightHip
	{
		OFFSET -9.469263 -0.004642 0.045487
		CHANNELS 3 Xrotation Yrotation Zrotation
		JOINT RightKnee
		{
			OFFSET 0.000000 -0.002666 -40.478676
			CHANNELS 3 Xrotation Yrotation Zrotation
			JOINT RightAnkle
			{
				OFFSET 0.000000 -0.049110 -35.224068
				CHANNELS 3 Xrotation Yrotation Zrotation
				JOINT RightToe
				{
					OFFSET 0.000000 -12.539530 -6.151390
					CHANNELS 3 Xrotation Yrotation Zrotation
					End Site
					{
						OFFSET 0.000000 -5.044995 -1.291870
					}
				}
			}
		}
	}
	JOINT LeftHip
	{
		OFFSET 9.469263 -0.004642 0.045487
		CHANNELS 3 Xrotation Yrotation Zrotation
		JOINT LeftKnee
		{
			OFFSET 0.000000 -0.002666 -40.478676
			CHANNELS 3 Xrotation Yrotation Zrotation
			JOINT LeftAnkle
			{
				OFFSET 0.000000 -0.049110 -35.224068
				CHANNELS 3 Xrotation Yrotation Zrotation
				JOINT LeftToe
				{
					OFFSET 0.000000 -12.539530 -6.151390
					CHANNELS 3 Xrotation Yrotation Zrotation
					End Site
					{
						OFFSET 0.000000 -5.044995 -1.291870
					}
				}
			}
		}
	}
}
MOTION
Frames: 11
Frame Time: 0.016667
-12.133806 -5.052372 82.966995 2.497391 5.142168 -112.149760 2.868829 0.319207 -0.755069 1.272920 0.146588 -0.331804 1.272920 0.146588 -0.331803 0.954610 0.110633 -0.248549 17.592704 -0.154627 -0.886503 -3.510787 0.019172 -1.669845 3.473506 -6.499212 4.742749 39.800622 -77.580772 79.807789 27.338040 -6.131076 86.354082 -58.035714 28.992148 79.672360 4.013826 10.555414 -6.777485 26.142016 71.671996 -66.444784 30.040617 16.855054 -83.272451 -43.472634 -36.866175 -86.300752 10.454624 -0.574955 -2.740166 0.406539 0.114570 0.187810 -5.549982 -0.724383 0.126053 0.027722 0.007252 0.011606 10.076873 -0.258111 0.757284 -0.092795 -0.570605 1.029300 -4.318286 1.044403 -0.847320 0.004004 0.011580 -0.012825 
-12.129529 -5.047921 82.966347 2.486987 5.121973 -112.143701 2.863911 0.323978 -0.758060 1.270779 0.148880 -0.332620 1.270779 0.148880 -0.332621 0.953003 0.112352 -0.249153 17.612534 -0.152256 -0.886907 -3.473935 0.023386 -1.669776 3.484250 -6.513077 4.742792 39.948113 -77.598551 79.914641 27.516372 -6.265914 86.309241 -58.043569 28.986889 79.694067 4.029291 10.570835 -6.772930 26.312440 71.734499 -66.542216 30.123723 16.720419 -83.186499 -43.379508 -36.837088 -86.353569 10.438690 -0.581574 -2.744567 0.390341 0.120511 0.172637 -5.542839 -0.728009 0.137815 0.027788 0.007512 0.011783 10.056296 -0.256103 0.750511 -0.102889 -0.580279 1.018920 -4.310803 1.051249 -0.834136 0.006546 0.011137 -0.012131 
-12.126381 -5.043456 82.965561 2.477884 5.103095 -112.143346 2.859595 0.326558 -0.759182 1.268760 0.150236 -0.332719 1.268760 0.150235 -0.332718 0.951488 0.113368 -0.249230 17.630146 -0.146667 -0.886799 -3.441157 0.033323 -1.667677 3.503030 -6.519741 4.748637 40.112291 -77.591659 80.047973 27.654114 -6.338512 86.273513 -58.023311 28.969277 79.717754 4.048139 10.585478 -6.766669 26.453731 71.774517 -66.620968 30.234249 16.648859 -83.104824 -43.306415 -36.815119 -86.422117 10.423560 -0.586254 -2.748723 0.376356 0.123889 0.171019 -5.537128 -0.728372 0.140536 0.028070 0.006533 0.012124 10.040042 -0.252955 0.757015 -0.114579 -0.592064 1.011098 -4.304608 1.058263 -0.833746 0.008893 0.012317 -0.011986 
-12.124235 -5.037426 82.964722 2.469445 5.086564 -112.144582 2.853310 0.326781 -0.758175 1.265852 0.150717 -0.332018 1.265852 0.150717 -0.332020 0.949307 0.113726 -0.248706 17.650536 -0.139289 -0.888938 -3.403189 0.047252 -1.669066 3.528568 -6.528614 4.768914 40.203125 -77.590157 80.111036 27.741964 -6.318485 86.249293 -58.031405 28.955190 79.773140 4.067172 10.602150 -6.758501 26.626791 71.816359 -66.728066 30.364699 16.620900 -83.040784 -43.246084 -36.835610 -86.540546 10.410775 -0.590521 -2.746832 0.364681 0.126095 0.166960 -5.533278 -0.727180 0.144573 0.028121 0.005707 0.011977 10.028160 -0.252159 0.765592 -0.127673 -0.599481 1.001100 -4.299137 1.063717 -0.837004 0.010871 0.013181 -0.011135 
-12.122710 -5.030736 82.963745 2.458488 5.070624 -112.139678 2.840742 0.326866 -0.764369 1.260218 0.151035 -0.334553 1.260218 0.151035 -0.334552 0.945082 0.113967 -0.250603 17.677725 -0.127349 -0.886474 -3.352566 0.067873 -1.660520 3.565705 -6.539352 4.787686 40.294346 -77.604063 80.189945 27.825702 -6.273282 86.223161 -58.012526 28.951273 79.847404 4.096344 10.620599 -6.743704 26.856237 71.895910 -66.881950 30.477370 16.562533 -82.982618 -43.212732 -36.838755 -86.681016 10.399148 -0.590954 -2.752827 0.353054 0.122938 0.162088 -5.531047 -0.724774 0.150566 0.028391 0.006273 0.011217 10.013827 -0.250660 0.759172 -0.137125 -0.604747 0.993255 -4.294880 1.067697 -0.825546 0.012044 0.013448 -0.010254 
-12.122151 -5.023888 82.962898 2.452945 5.059205 -112.134378 2.826004 0.324448 -0.779359 1.253701 0.149726 -0.340831 1.253701 0.149726 -0.340828 0.940192 0.112994 -0.255320 17.712040 -0.111892 -0.878337 -3.288746 0.092890 -1.640443 3.600263 -6.550975 4.813435 40.376192 -77.620291 80.249204 27.896603 -6.229401 86.206235 -57.996857 28.938555 79.907100 4.145616 10.644425 -6.720696 27.104636 72.015411 -67.059829 30.558874 16.462235 -82.953453 -43.192539 -36.815987 -86.781966 10.393321 -0.595308 -2.751855 0.343647 0.120492 0.153368 -5.528922 -0.721043 0.153683 0.027193 0.005756 0.011335 10.005250 -0.251546 0.747157 -0.143457 -0.614589 0.985513 -4.293987 1.073534 -0.820779 0.013611 0.014746 -0.010212 
-12.122549 -5.016669 82.961922 2.445943 5.047011 -112.124652 2.812149 0.324336 -0.795898 1.247600 0.149617 -0.347774 1.247600 0.149617 -0.347776 0.935614 0.112923 -0.260533 17.748962 -0.100527 -0.868424 -3.220137 0.109825 -1.618530 3.645318 -6.564803 4.839725 40.389241 -77.654572 80.254217 27.970087 -6.224699 86.190499 -57.971722 28.911791 79.949072 4.189019 10.674291 -6.713123 27.273992 72.163667 -67.173968 30.629212 16.373381 -82.950004 -43.198249 -36.787901 -86.869290 10.387510 -0.600750 -2.751279 0.334027 0.121038 0.145459 -5.529278 -0.715885 0.151749 0.027211 0.003201 0.011255 9.993110 -0.250200 0.732703 -0.145271 -0.624342 0.977899 -4.295984 1.076259 -0.807535 0.015258 0.016795 -0.010225 
-12.124681 -5.009626 82.960564 2.442571 5.039548 -112.117965 2.809487 0.326951 -0.820461 1.246327 0.150808 -0.358370 1.246327 0.150808 -0.358371 0.934657 0.113837 -0.268472 17.779899 -0.093192 -0.851289 -3.162759 0.117059 -1.584808 3.646632 -6.583834 4.870718 40.396181 -77.674967 80.227463 28.041164 -6.228729 86.182917 -57.999678 28.909250 80.011664 4.205867 10.708628 -6.695774 27.346291 72.289295 -67.201979 30.680704 16.337005 -82.977024 -43.177345 -36.793771 -86.966934 10.385133 -0.607047 -2.747645 0.331416 0.121807 0.140185 -5.535335 -0.710416 0.147839 0.028103 0.000913 0.011027 9.990992 -0.252342 0.728341 -0.152232 -0.629105 0.966666 -4.298209 1.076109 -0.794890 0.017415 0.018945 -0.010164 
-12.128001 -5.000790 82.959160 2.439234 5.032811 -112.113696 2.811401 0.337869 -0.833674 1.246978 0.155890 -0.364143 1.246978 0.155890 -0.364147 0.935141 0.117661 -0.272797 17.809477 -0.099272 -0.842897 -3.107967 0.102782 -1.571546 3.642428 -6.619562 4.893003 40.291709 -77.714145 80.096652 28.117392 -6.266223 86.185410 -58.032941 28.904090 80.079228 4.217885 10.717306 -6.690441 27.372516 72.402348 -67.207982 30.739567 16.302179 -82.988240 -43.141155 -36.800837 -87.055686 10.386524 -0.614338 -2.736777 0.324324 0.124084 0.131640 -5.538062 -0.702212 0.142261 0.027331 -0.002969 0.010734 9.990581 -0.254483 0.729765 -0.158569 -0.633172 0.950744 -4.301457 1.077012 -0.778736 0.018722 0.019688 -0.009584 
-12.130586 -4.991543 82.958168 2.434807 5.027605 -112.116012 2.814937 0.356006 -0.836477 1.248784 0.164065 -0.365074 1.248784 0.164065 -0.365073 0.936489 0.123795 -0.273467 17.840017 -0.118481 -0.840985 -3.051503 0.066729 -1.574522 3.654484 -6.662691 4.913932 40.087043 -77.759641 79.887402 28.190168 -6.315562 86.187090 -58.027061 28.875410 80.112272 4.214892 10.709589 -6.684338 27.334006 72.476244 -67.161899 30.819876 16.259279 -82.973794 -43.126122 -36.799174 -87.114985 10.383709 -0.618364 -2.717064 0.325740 0.124442 0.111556 -5.543169 -0.692415 0.144001 0.026175 -0.006732 0.010984 9.991742 -0.254324 0.723580 -0.164857 -0.638648 0.941965 -4.303340 1.078486 -0.760584 0.018123 0.020889 -0.010101 
-12.133679 -4.982913 82.957581 2.431094 5.022385 -112.118095 2.811062 0.368541 -0.835614 1.247419 0.169478 -0.364493 1.247419 0.169478 -0.364483 0.935463 0.127852 -0.273021 17.879702 -0.137343 -0.845348 -2.977965 0.033306 -1.588813 3.665544 -6.701134 4.928381 39.803498 -77.770597 79.590214 28.249365 -6.371095 86.179823 -58.005395 28.836902 80.107942 4.199934 10.710085 -6.671417 27.272145 72.518017 -67.081754 30.923012 16.239535 -82.946241 -43.101393 -36.782867 -87.141425 10.379710 -0.620934 -2.708390 0.330591 0.121446 0.105181 -5.548351 -0.681985 0.145006 0.023560 -0.009002 0.011263 9.992143 -0.251821 0.702938 -0.168585 -0.649863 0.950770 -4.305274 1.082354 -0.754173 0.016329 0.022323 -0.010963 
